<?xml version="1.0" encoding="UTF-8" standalone="no"?>
<!-- Created with Inkscape (http://www.inkscape.org/) -->

<svg
   xmlns:dc="http://purl.org/dc/elements/1.1/"
   xmlns:cc="http://creativecommons.org/ns#"
   xmlns:rdf="http://www.w3.org/1999/02/22-rdf-syntax-ns#"
   xmlns:svg="http://www.w3.org/2000/svg"
   xmlns="http://www.w3.org/2000/svg"
   xmlns:xlink="http://www.w3.org/1999/xlink"
   xmlns:sodipodi="http://sodipodi.sourceforge.net/DTD/sodipodi-0.dtd"
   xmlns:inkscape="http://www.inkscape.org/namespaces/inkscape"
   id="svg2"
   xml:space="preserve"
   version="1.1"
   viewBox="0 0 254.52319 233.265"
   inkscape:version="0.91 r13725"
   sodipodi:docname="RECYCLE-shaded.svg"
   width="254.52319"
   height="233.26331"><defs
     id="defs205005"><linearGradient
       inkscape:collect="always"
       id="linearGradient205862"><stop
         style="stop-color:#ffffff;stop-opacity:1;"
         offset="0"
         id="stop205864" /><stop
         style="stop-color:#ffffff;stop-opacity:0;"
         offset="1"
         id="stop205866" /></linearGradient><linearGradient
       inkscape:collect="always"
       id="linearGradient205700"><stop
         style="stop-color:#7f5122;stop-opacity:1;"
         offset="0"
         id="stop205702" /><stop
         style="stop-color:#7f5122;stop-opacity:0;"
         offset="1"
         id="stop205704" /></linearGradient><linearGradient
       inkscape:collect="always"
       id="linearGradient205690"><stop
         style="stop-color:#b8834e;stop-opacity:1;"
         offset="0"
         id="stop205692" /><stop
         style="stop-color:#b8834e;stop-opacity:0;"
         offset="1"
         id="stop205694" /></linearGradient><linearGradient
       inkscape:collect="always"
       id="linearGradient205672"><stop
         style="stop-color:#39648f;stop-opacity:1;"
         offset="0"
         id="stop205674" /><stop
         style="stop-color:#39648f;stop-opacity:0;"
         offset="1"
         id="stop205676" /></linearGradient><linearGradient
       inkscape:collect="always"
       id="linearGradient205662"><stop
         style="stop-color:#8f8f8f;stop-opacity:1;"
         offset="0"
         id="stop205664" /><stop
         style="stop-color:#8f8f8f;stop-opacity:0;"
         offset="1"
         id="stop205666" /></linearGradient><linearGradient
       inkscape:collect="always"
       id="linearGradient205652"><stop
         style="stop-color:#8f8f8f;stop-opacity:1;"
         offset="0"
         id="stop205654" /><stop
         style="stop-color:#8f8f8f;stop-opacity:0;"
         offset="1"
         id="stop205656" /></linearGradient><linearGradient
       inkscape:collect="always"
       id="linearGradient205642"><stop
         style="stop-color:#8f8f8f;stop-opacity:1;"
         offset="0"
         id="stop205644" /><stop
         style="stop-color:#8f8f8f;stop-opacity:0;"
         offset="1"
         id="stop205646" /></linearGradient><linearGradient
       inkscape:collect="always"
       id="linearGradient205624"><stop
         style="stop-color:#c8c820;stop-opacity:1;"
         offset="0"
         id="stop205626" /><stop
         style="stop-color:#c8c820;stop-opacity:0;"
         offset="1"
         id="stop205628" /></linearGradient><linearGradient
       inkscape:collect="always"
       id="linearGradient205614"><stop
         style="stop-color:#afaf4a;stop-opacity:1;"
         offset="0"
         id="stop205616" /><stop
         style="stop-color:#afaf4a;stop-opacity:0;"
         offset="1"
         id="stop205618" /></linearGradient><linearGradient
       inkscape:collect="always"
       id="linearGradient205604"><stop
         style="stop-color:#2f5a2f;stop-opacity:1;"
         offset="0"
         id="stop205606" /><stop
         style="stop-color:#2f5a2f;stop-opacity:0;"
         offset="1"
         id="stop205608" /></linearGradient><linearGradient
       inkscape:collect="always"
       id="linearGradient205591"><stop
         style="stop-color:#e36969;stop-opacity:1;"
         offset="0"
         id="stop205593" /><stop
         style="stop-color:#e36969;stop-opacity:0;"
         offset="1"
         id="stop205595" /></linearGradient><linearGradient
       inkscape:collect="always"
       id="linearGradient205579"><stop
         style="stop-color:#e2e2e2;stop-opacity:1;"
         offset="0"
         id="stop205581" /><stop
         style="stop-color:#e2e2e2;stop-opacity:0;"
         offset="1"
         id="stop205583" /></linearGradient><linearGradient
       inkscape:collect="always"
       id="linearGradient205569"><stop
         style="stop-color:#81582f;stop-opacity:1;"
         offset="0"
         id="stop205571" /><stop
         style="stop-color:#81582f;stop-opacity:0;"
         offset="1"
         id="stop205573" /></linearGradient><linearGradient
       inkscape:collect="always"
       id="linearGradient205559"><stop
         style="stop-color:#2d7752;stop-opacity:1;"
         offset="0"
         id="stop205561" /><stop
         style="stop-color:#2d7752;stop-opacity:0;"
         offset="1"
         id="stop205563" /></linearGradient><linearGradient
       inkscape:collect="always"
       id="linearGradient205549"><stop
         style="stop-color:#54e1e1;stop-opacity:1;"
         offset="0"
         id="stop205551" /><stop
         style="stop-color:#54e1e1;stop-opacity:0;"
         offset="1"
         id="stop205553" /></linearGradient><radialGradient
       inkscape:collect="always"
       xlink:href="#linearGradient205549"
       id="radialGradient205555"
       cx="74.096626"
       cy="38.344002"
       fx="74.096626"
       fy="38.344002"
       r="31.66337"
       gradientTransform="matrix(1,0,0,0.99313498,0,0.26323234)"
       gradientUnits="userSpaceOnUse" /><radialGradient
       inkscape:collect="always"
       xlink:href="#linearGradient205559"
       id="radialGradient205565"
       cx="155.4176"
       cy="95.541595"
       fx="155.4176"
       fy="95.541595"
       r="21.817513"
       gradientTransform="matrix(0.97007464,-0.24280691,0.70155203,2.8028767,-61.448692,-119.90984)"
       gradientUnits="userSpaceOnUse" /><linearGradient
       inkscape:collect="always"
       xlink:href="#linearGradient205569"
       id="linearGradient205575"
       x1="124.67187"
       y1="35.837502"
       x2="137.299"
       y2="35.837502"
       gradientUnits="userSpaceOnUse" /><linearGradient
       inkscape:collect="always"
       xlink:href="#linearGradient205579"
       id="linearGradient205585"
       x1="225.77794"
       y1="55.092808"
       x2="165.13364"
       y2="59.806923"
       gradientUnits="userSpaceOnUse" /><radialGradient
       inkscape:collect="always"
       xlink:href="#linearGradient205591"
       id="radialGradient205597"
       cx="105.422"
       cy="99.062813"
       fx="105.422"
       fy="99.062813"
       r="23.562"
       gradientTransform="matrix(1,0,0,0.87051997,0,12.826656)"
       gradientUnits="userSpaceOnUse" /><radialGradient
       inkscape:collect="always"
       xlink:href="#linearGradient205591"
       id="radialGradient205599"
       cx="66.3265"
       cy="92.774002"
       fx="66.3265"
       fy="92.774002"
       r="25.685499"
       gradientTransform="matrix(1,0,0,0.92160947,0,7.2726032)"
       gradientUnits="userSpaceOnUse" /><radialGradient
       inkscape:collect="always"
       xlink:href="#linearGradient205604"
       id="radialGradient205610"
       cx="91.19236"
       cy="94.256081"
       fx="91.19236"
       fy="94.256081"
       r="20.177732"
       gradientTransform="matrix(0.99659278,0.08247931,-0.1723114,2.0820288,16.552109,-102.67589)"
       gradientUnits="userSpaceOnUse" /><linearGradient
       inkscape:collect="always"
       xlink:href="#linearGradient205614"
       id="linearGradient205620"
       x1="22.97205"
       y1="95.465912"
       x2="52.205742"
       y2="84.099274"
       gradientUnits="userSpaceOnUse" /><linearGradient
       inkscape:collect="always"
       xlink:href="#linearGradient205624"
       id="linearGradient205630"
       x1="38.004951"
       y1="229.04361"
       x2="41.610989"
       y2="207.87503"
       gradientUnits="userSpaceOnUse" /><linearGradient
       inkscape:collect="always"
       xlink:href="#linearGradient205642"
       id="linearGradient205648"
       x1="75.015533"
       y1="232.11304"
       x2="78.706879"
       y2="206.00513"
       gradientUnits="userSpaceOnUse" /><linearGradient
       inkscape:collect="always"
       xlink:href="#linearGradient205652"
       id="linearGradient205658"
       x1="85.136383"
       y1="101.79492"
       x2="104.54214"
       y2="82.037582"
       gradientUnits="userSpaceOnUse" /><linearGradient
       inkscape:collect="always"
       xlink:href="#linearGradient205662"
       id="linearGradient205668"
       x1="88.272789"
       y1="32.486851"
       x2="101.48842"
       y2="15.55199"
       gradientUnits="userSpaceOnUse" /><radialGradient
       inkscape:collect="always"
       xlink:href="#linearGradient205672"
       id="radialGradient205678"
       cx="166.37274"
       cy="173.62257"
       fx="166.37274"
       fy="173.62257"
       r="124.04486"
       gradientTransform="matrix(0.54949872,0.01533619,-0.02855716,1.0232092,80.339035,-22.563391)"
       gradientUnits="userSpaceOnUse" /><linearGradient
       inkscape:collect="always"
       xlink:href="#linearGradient205690"
       id="linearGradient205696"
       x1="122.27586"
       y1="107.1451"
       x2="136.84911"
       y2="112.43724"
       gradientUnits="userSpaceOnUse" /><linearGradient
       inkscape:collect="always"
       xlink:href="#linearGradient205700"
       id="linearGradient205706"
       x1="147.74234"
       y1="97.916206"
       x2="151.09962"
       y2="101.37607"
       gradientUnits="userSpaceOnUse" /><radialGradient
       inkscape:collect="always"
       xlink:href="#linearGradient205862"
       id="radialGradient205868"
       cx="43.069344"
       cy="146.5154"
       fx="43.069344"
       fy="146.5154"
       r="16.800098"
       gradientTransform="matrix(1,0,0,1.4909092,-14.661904,-85.976741)"
       gradientUnits="userSpaceOnUse" /><filter
       inkscape:collect="always"
       style="color-interpolation-filters:sRGB"
       id="filter205890"
       x="-0.13600364"
       width="1.2720073"
       y="-0.091221951"
       height="1.1824439"><feGaussianBlur
         inkscape:collect="always"
         stdDeviation="1.9040621"
         id="feGaussianBlur205892" /></filter><radialGradient
       inkscape:collect="always"
       xlink:href="#linearGradient205862"
       id="radialGradient205969"
       gradientUnits="userSpaceOnUse"
       gradientTransform="matrix(1,0,0,1.4909092,-14.661904,-85.976741)"
       cx="43.069344"
       cy="146.5154"
       fx="43.069344"
       fy="146.5154"
       r="16.800098" /></defs><sodipodi:namedview
     pagecolor="#ffffff"
     bordercolor="#666666"
     borderopacity="1"
     objecttolerance="10"
     gridtolerance="10"
     guidetolerance="10"
     inkscape:pageopacity="0"
     inkscape:pageshadow="2"
     inkscape:window-width="1916"
     inkscape:window-height="1035"
     id="namedview205003"
     showgrid="false"
     inkscape:zoom="2.5328799"
     inkscape:cx="85.839121"
     inkscape:cy="81.815662"
     inkscape:window-x="4"
     inkscape:window-y="1"
     inkscape:window-maximized="1"
     inkscape:current-layer="g205971"
     fit-margin-top="0"
     fit-margin-left="0"
     fit-margin-right="0"
     fit-margin-bottom="0" /><g
     id="Layer_1"><g
       id="g7"><g
         id="g205710"><g
           id="g205971"><g
             id="g4449"><path
               inkscape:connector-curvature="0"
               d="m 112.06,37.066 c 0.828,0.864 1.404,1.728 1.872,2.592 0.468,0.756 0.684,1.224 0.792,2.52 -0.072,1.26 -0.324,3.708 -0.36,5.112 -0.036,1.296 -0.216,2.232 0.432,2.808 0.54,0.576 2.268,0.792 3.24,0.648 1.008,-0.252 2.052,-1.008 2.592,-1.98 0.432,-1.224 0.432,-2.7 0,-4.284 -0.468,-1.584 -1.296,-3.384 -2.484,-4.572 -1.224,-1.188 -2.808,-1.98 -4.752,-2.376 -0.432,-0.144 -0.864,-0.288 -1.332,-0.468 z"
               style="fill:#000;fill-opacity:1;fill-rule:evenodd"
               id="path9" /><path
               inkscape:connector-curvature="0"
               d="m 247.53,85.09 c -5.365,-2.7 -10.152,-4.572 -14.904,-5.616 -4.68,-1.152 4.248,-0.036 -13.068,-0.684 -17.713,-0.684 -71.568,-3.168 -91.045,-3.168 -19.403,-0.144 -13.607,2.196 -24.119,2.736 -10.584,0.396 -29.052,-0.36 -38.304,0.216 -9.288,0.684 -11.556,1.836 -16.92,3.6 -5.436,1.62 -11.88,4.248 -15.3,6.084 -3.42,1.692 -3.672,3.168 -5.184,4.284 -1.656,1.08 -1.836,0.936 -4.284,2.484 -2.484,1.512 -7.416,4.608 -10.368,6.516 -2.952,1.728 -5.364,3.06 -7.236,4.284 -1.98,1.224 -3.348,1.836 -4.248,2.952 -0.972,1.044 -1.404,1.44 -1.584,3.132 -0.324,1.692 -0.18,4.5 0,6.768 0.18,2.16 0.504,4.14 1.116,6.084 l 6.984,1.152 c 1.692,10.188 3.06,18.468 3.816,24.983 0.648,6.408 0.9,6.229 0.9,13.752 -0.036,7.524 -0.288,17.677 -0.9,30.889 -0.612,0.899 1.728,2.304 7.452,4.067 5.58,1.729 10.44,3.996 26.388,6.517 16.092,2.556 49.32,6.731 68.724,8.352 19.188,1.44 34.165,1.584 45.757,0.432 3.096,-1.044 7.775,-2.592 14.184,-5.184 6.443,-2.556 17.207,-6.876 24.119,-9.9 6.84,-3.132 11.16,-4.571 16.705,-8.352 5.4,-3.888 10.656,-8.388 15.768,-14.184 0.9,0.144 1.801,-1.692 2.699,-5.652 0.9,-4.104 1.801,-11.16 2.701,-18.252 0.828,-7.309 1.943,-16.92 2.232,-24.12 0.143,-7.056 -0.182,-13.14 -1.117,-18.252 l 9.252,-5.616 c 0.793,-3.888 1.117,-7.452 1.117,-10.836 -0.073,-3.456 -0.47,-6.48 -1.333,-9.468 z"
               style="fill:#000;fill-opacity:1;fill-rule:evenodd"
               id="path11" /><path
               inkscape:connector-curvature="0"
               id="path205670"
               style="opacity:0.58899997;fill:url(#radialGradient205678);fill-opacity:1;fill-rule:evenodd"
               d="m 247.53,85.09 c -5.365,-2.7 -10.152,-4.572 -14.904,-5.616 -4.68,-1.152 4.248,-0.036 -13.068,-0.684 -17.713,-0.684 -71.568,-3.168 -91.045,-3.168 -19.403,-0.144 -13.607,2.196 -24.119,2.736 -10.584,0.396 -29.052,-0.36 -38.304,0.216 -9.288,0.684 -11.556,1.836 -16.92,3.6 -5.436,1.62 -11.88,4.248 -15.3,6.084 -3.42,1.692 -3.672,3.168 -5.184,4.284 -1.656,1.08 -1.836,0.936 -4.284,2.484 -2.484,1.512 -7.416,4.608 -10.368,6.516 -2.952,1.728 -5.364,3.06 -7.236,4.284 -1.98,1.224 -3.348,1.836 -4.248,2.952 -0.972,1.044 -1.404,1.44 -1.584,3.132 -0.324,1.692 -0.18,4.5 0,6.768 0.18,2.16 0.504,4.14 1.116,6.084 l 6.984,1.152 c 1.692,10.188 3.06,18.468 3.816,24.983 0.648,6.408 0.9,6.229 0.9,13.752 -0.036,7.524 -0.288,17.677 -0.9,30.889 -0.612,0.899 1.728,2.304 7.452,4.067 5.58,1.729 10.44,3.996 26.388,6.517 16.092,2.556 49.32,6.731 68.724,8.352 19.188,1.44 34.165,1.584 45.757,0.432 3.096,-1.044 7.775,-2.592 14.184,-5.184 6.443,-2.556 17.207,-6.876 24.119,-9.9 6.84,-3.132 11.16,-4.571 16.705,-8.352 5.4,-3.888 10.656,-8.388 15.768,-14.184 0.9,0.144 1.801,-1.692 2.699,-5.652 0.9,-4.104 1.801,-11.16 2.701,-18.252 0.828,-7.309 1.943,-16.92 2.232,-24.12 0.143,-7.056 -0.182,-13.14 -1.117,-18.252 l 9.252,-5.616 c 0.793,-3.888 1.117,-7.452 1.117,-10.836 -0.073,-3.456 -0.47,-6.48 -1.333,-9.468 z" /><path
               inkscape:connector-curvature="0"
               d="m 42.656,39.586 c -0.432,3.924 -0.252,7.56 0.684,11.052 0.864,3.384 1.188,6.48 4.716,9.684 3.528,3.24 8.676,6.3 16.02,9.468 7.704,-4.86 14.76,-10.08 21.852,-15.804 6.984,-5.796 13.464,-11.772 19.832,-18.468 -3.996,-0.36 -7.308,-1.404 -10.368,-3.132 -3.06,-1.8 -5.76,-4.932 -7.668,-7.452 -1.908,-2.592 -3.06,-5.148 -3.6,-8.1 -0.576,-3.096 -0.504,-6.264 0.216,-9.936 -7.74,5.328 -14.796,10.44 -21.852,16.02 -7.02,5.544 -13.5,10.872 -19.836,16.668 z"
               style="fill:#000;fill-opacity:1;fill-rule:evenodd"
               id="path13" /><path
               inkscape:connector-curvature="0"
               d="m 128.98,41.17 c 1.404,1.62 2.377,3.348 2.916,5.184 0.432,1.836 1.008,3.132 0.217,5.832 -0.9,2.664 -4.393,6.552 -4.934,10.152 -0.504,3.42 0.324,7.164 1.801,10.836 1.367,3.672 4.717,7.344 6.301,11.016 1.402,3.564 1.908,7.56 2.482,10.62 0.504,3.06 0.9,5.4 0.9,7.416 l 4.5,-1.8 c 1.764,-2.304 3.133,-3.744 4.5,-4.716 1.26,-0.972 1.945,-1.224 3.168,-0.9 1.188,0.144 3.709,1.188 4.068,2.448 0.252,1.332 -1.225,3.348 -2.484,5.22 -1.332,1.728 -4.248,3.276 -5.436,5.184 -1.297,1.764 -1.836,4.212 -2.016,5.832 -0.217,1.548 1.008,2.556 0.9,3.852 -0.145,1.296 -0.793,2.52 -1.801,3.816 2.916,-0.072 6.119,-0.072 9.469,0 3.42,0.035 7.596,0.468 10.584,0.468 2.807,-0.072 5.039,-0.252 6.551,-0.685 -0.324,-2.699 -1.08,-5.616 -2.268,-9.036 -1.152,-3.456 -2.951,-7.488 -4.717,-11.268 -1.979,-3.924 -4.211,-8.568 -6.551,-11.7 -2.377,-3.096 -4.645,-5.472 -7.201,-6.984 1.332,-0.72 2.16,-1.944 2.916,-3.384 0.648,-1.476 1.08,-3.456 1.152,-5.652 -0.863,-2.376 -1.943,-4.356 -3.635,-6.084 -1.693,-1.728 -3.744,-3.204 -6.301,-4.284 3.133,-1.188 5.58,-2.268 7.199,-3.384 1.621,-1.116 2.449,-2.16 2.484,-3.132 l -2.916,-5.652 0.9,-2.916 c -2.053,0.108 -4.213,-0.612 -6.768,-2.016 -2.592,-1.476 -5.328,-3.78 -8.352,-6.768 -2.516,0.829 -5.071,1.657 -7.628,2.485 z"
               style="fill:#000;fill-rule:evenodd"
               id="path15" /><path
               inkscape:connector-curvature="0"
               d="m 112.75,119.36 c 1.872,-3.132 3.924,-5.76 6.3,-7.884 2.376,-2.16 4.932,-3.816 7.668,-4.968 2.555,-1.188 4.859,-1.08 7.883,-2.016 2.881,-1.008 6.156,-2.412 9.686,-4.068 l 3.852,4.752 c -1.873,2.304 -3.023,4.176 -3.6,5.616 -0.648,1.404 0.072,1.836 0.215,2.952 0.072,1.08 0.721,2.232 0.432,3.6 -0.395,1.368 -1.115,2.664 -2.447,4.284 -4.535,-0.145 -9.18,-0.324 -14.221,-0.685 -5.113,-0.394 -10.188,-0.97 -15.768,-1.583 z"
               style="fill:#000;fill-opacity:1;fill-rule:evenodd"
               id="path17" /><path
               inkscape:connector-curvature="0"
               id="path205680"
               style="fill:url(#linearGradient205696);fill-opacity:1;fill-rule:evenodd"
               d="m 112.75,119.36 c 1.872,-3.132 3.924,-5.76 6.3,-7.884 2.376,-2.16 4.932,-3.816 7.668,-4.968 2.555,-1.188 4.859,-1.08 7.883,-2.016 2.881,-1.008 6.156,-2.412 9.686,-4.068 l 3.852,4.752 c -1.873,2.304 -3.023,4.176 -3.6,5.616 -0.648,1.404 0.072,1.836 0.215,2.952 0.072,1.08 0.721,2.232 0.432,3.6 -0.395,1.368 -1.115,2.664 -2.447,4.284 -4.535,-0.145 -9.18,-0.324 -14.221,-0.685 -5.113,-0.394 -10.188,-0.97 -15.768,-1.583 z" /><path
               inkscape:connector-curvature="0"
               d="m 81.86,100.89 c 0.576,2.88 1.332,5.652 2.268,8.316 0.936,2.664 2.016,5.22 3.384,7.668 l 25.92,2.7 c 1.656,-2.665 3.384,-5.041 5.184,-6.984 1.692,-2.088 3.636,-3.96 5.4,-4.932 1.692,-0.9 3.349,-1.224 4.968,-0.684 -2.557,-4.86 -4.968,-9.396 -7.668,-13.752 -2.772,-4.392 -6.264,-9.792 -8.136,-12.168 -1.836,-2.376 -2.808,-3.06 -2.916,-2.052 0.54,5.112 0.036,9.324 -1.368,12.636 -1.512,3.348 -4.536,5.328 -7.416,7.2 -2.88,1.656 -7.488,2.736 -9.936,3.384 -2.556,0.684 -3.636,0.864 -5.184,0.684 -1.692,-0.216 -3.06,-0.936 -4.5,-2.016 z"
               style="fill:#bf2e2e;fill-opacity:1;fill-rule:evenodd"
               id="path19" /><path
               inkscape:connector-curvature="0"
               id="path21"
               d="m 89.996094,50.386719 c -0.792,1.44 -1.727172,3.599937 -2.951172,6.335937 -1.296,2.808 -3.419203,6.875235 -4.283203,10.115235 -0.9,3.06 -1.152391,5.724718 -0.900391,8.136718 l 9.935547,8.783203 c 2.7,-1.296 5.579203,-2.447968 8.783205,-3.167968 3.168,-0.864 6.55234,-1.295985 10.15234,-1.583985 l 5.18555,4.53711 c 1.872,-3.204 3.23809,-6.08511 4.24609,-9.03711 0.972,-2.88 1.33314,-5.652406 1.36914,-8.316406 -1.692,-2.88 -3.99712,-5.363172 -7.45312,-7.451172 -3.492,-2.124 -8.78246,-3.851593 -12.81446,-5.183593 -4.031995,-1.44 -7.741526,-2.447969 -11.269526,-3.167969 z m -6.767578,58.603511 -2.050782,7.45118 7.451172,1.11718 c -0.612,-0.864 -1.367578,-1.94476 -2.267578,-3.38476 -0.901,-1.512 -1.944812,-3.0956 -3.132812,-5.1836 z"
               style="fill:#008000;fill-rule:evenodd" /><path
               inkscape:connector-curvature="0"
               style="fill:url(#radialGradient205610);fill-opacity:1;fill-rule:evenodd"
               d="m 89.996094,50.386719 c -0.792,1.44 -1.727172,3.599937 -2.951172,6.335937 -1.296,2.808 -3.419203,6.875235 -4.283203,10.115235 -0.9,3.06 -1.152391,5.724718 -0.900391,8.136718 l 9.935547,8.783203 c 2.7,-1.296 5.579203,-2.447968 8.783205,-3.167968 3.168,-0.864 6.55234,-1.295985 10.15234,-1.583985 l 5.18555,4.53711 c 1.872,-3.204 3.23809,-6.08511 4.24609,-9.03711 0.972,-2.88 1.33314,-5.652406 1.36914,-8.316406 -1.692,-2.88 -3.99712,-5.363172 -7.45312,-7.451172 -3.492,-2.124 -8.78246,-3.851593 -12.81446,-5.183593 -4.031995,-1.44 -7.741526,-2.447969 -11.269526,-3.167969 z m -6.767578,58.603511 -2.050782,7.45118 7.451172,1.11718 c -0.612,-0.864 -1.367578,-1.94476 -2.267578,-3.38476 -0.901,-1.512 -1.944812,-3.0956 -3.132812,-5.1836 z"
               id="path205602" /><path
               sodipodi:nodetypes="cccccccccc"
               inkscape:connector-curvature="0"
               d="m 91.329,83.074 c -3.996,2.628 -6.732,5.328 -8.352,8.1 -1.656,2.772 -1.98,6.48 -1.548,8.352 0.324,1.8 1.399187,2.32561 3.163187,2.82961 1.692,0.396 3.928813,0.59039 7.204813,-0.12961 3.312,-0.72 9.936,-1.944 13.068,-4.5 2.952,-2.7 4.104,-8.172 4.968,-11.268 0.864,-3.132 0.936,-5.616 0.216,-7.452 -4.788,0.684 -8.604,1.368 -11.736,2.052 -3.097,0.72 -5.473,1.26 -6.984,2.016 z"
               style="fill:#c0c0c0;fill-rule:evenodd"
               id="path25" /><path
               inkscape:connector-curvature="0"
               id="path205587"
               style="fill:url(#radialGradient205597);fill-opacity:1;fill-rule:evenodd"
               d="m 81.86,100.89 c 0.576,2.88 1.332,5.652 2.268,8.316 0.936,2.664 2.016,5.22 3.384,7.668 l 25.92,2.7 c 1.656,-2.665 3.384,-5.041 5.184,-6.984 1.692,-2.088 3.636,-3.96 5.4,-4.932 1.692,-0.9 3.349,-1.224 4.968,-0.684 -2.557,-4.86 -4.968,-9.396 -7.668,-13.752 -2.772,-4.392 -6.264,-9.792 -8.136,-12.168 -1.836,-2.376 -2.808,-3.06 -2.916,-2.052 0.54,5.112 0.036,9.324 -1.368,12.636 -1.512,3.348 -4.536,5.328 -7.416,7.2 -2.88,1.656 -7.488,2.736 -9.936,3.384 -2.556,0.684 -3.636,0.864 -5.184,0.684 -1.692,-0.216 -3.06,-0.936 -4.5,-2.016 z" /><path
               inkscape:connector-curvature="0"
               d="m 144.97,99.31 c -0.9,0.972 -0.973,1.944 -0.217,2.916 0.684,0.972 2.232,1.944 4.5,2.916 l 5.4,-5.616 c -0.721,-1.908 -1.439,-3.312 -2.447,-4.068 -1.045,-0.828 -2.125,-1.044 -3.385,-0.648 -1.259,1.476 -2.556,2.988 -3.851,4.5 z"
               style="fill:#a16121;fill-rule:evenodd"
               id="path27" /><path
               inkscape:connector-curvature="0"
               id="path205698"
               style="fill:url(#linearGradient205706);fill-opacity:1;fill-rule:evenodd"
               d="m 144.97,99.31 c -0.9,0.972 -0.973,1.944 -0.217,2.916 0.684,0.972 2.232,1.944 4.5,2.916 l 5.4,-5.616 c -0.721,-1.908 -1.439,-3.312 -2.447,-4.068 -1.045,-0.828 -2.125,-1.044 -3.385,-0.648 -1.259,1.476 -2.556,2.988 -3.851,4.5 z" /><path
               inkscape:connector-curvature="0"
               d="m 125.13,37.786 5.401,3.384 6.768,-5.184 -0.684,-3.168 c -0.9,-1.008 -1.584,-1.728 -2.449,-2.016 -0.828,-0.396 -1.656,-0.396 -2.484,0 -0.936,0.36 -1.871,1.296 -2.951,2.232 -1.115,0.9 -3.06,1.8 -3.6,2.7 -0.612,0.792 -0.612,1.476 -0.001,2.052 z"
               style="fill:#a16121;fill-rule:evenodd"
               id="path29" /><path
               inkscape:connector-curvature="0"
               d="m 177.66,32.134 c -3.492,-0.324 -7.127,0.252 -11.053,2.268 -4.066,1.98 -9.936,6.444 -12.6,9.216 -2.699,2.628 -3.779,4.644 -3.383,6.336 l 2.699,6.084 c -1.871,1.404 -3.527,2.556 -4.969,3.6 -1.475,0.972 -2.627,1.8 -3.6,2.484 3.061,2.952 5.293,5.292 6.984,7.416 1.584,2.016 2.484,3.6 2.699,4.752 -0.756,1.656 -1.547,3.204 -2.23,4.5 -0.756,1.332 -1.441,2.412 -2.053,3.384 2.16,2.196 4.141,4.5 6.084,6.768 1.873,2.196 3.6,4.428 5.184,6.984 1.549,2.592 2.809,5.364 4.068,8.316 1.188,2.88 2.195,6.012 3.168,8.82 0.828,2.7 1.549,5.004 2.016,7.2 0.072,0.972 1.369,1.044 4.033,0.216 2.627,-0.828 7.164,-3.204 11.52,-5.184 4.248,-2.268 9.684,-4.716 13.969,-7.2 4.211,-2.484 7.99,-5.076 11.051,-7.2 2.881,-2.16 4.932,-3.924 6.301,-5.436 -0.684,-2.664 -0.828,-5.472 -0.432,-8.568 0.287,-3.168 1.367,-6.444 2.699,-10.116 1.367,-3.78 2.988,-8.136 5.4,-11.952 2.34,-3.744 5.148,-7.272 8.568,-10.584 -0.576,-2.484 -1.404,-4.644 -2.484,-6.768 -1.152,-2.124 -2.412,-4.032 -4.068,-5.868 l 2.484,-12.168 c -0.721,0.54 -1.945,1.26 -3.385,2.016 -1.512,0.756 -3.383,1.584 -5.615,2.484 l 3.131,-14.184 -10.799,4.5 c 0.18,-2.952 0.684,-6.012 1.115,-9.468 0.541,-3.492 1.008,-7.128 1.801,-11.052 -6.121,-1.512 -11.125,-2.412 -15.553,-2.7 -4.393,-0.324 -7.271,0.108 -10.584,0.9 -3.42,0.756 -6.084,1.908 -9.252,3.6 -3.168,1.62 -6.229,3.6 -9.469,6.084 1.441,2.916 2.773,5.976 3.854,9.468 1.117,3.456 2.018,7.092 2.701,11.052 z"
               style="fill:#c0c0c0;fill-rule:evenodd"
               id="path31" /><path
               inkscape:connector-curvature="0"
               id="path205577"
               style="fill:url(#linearGradient205585);fill-opacity:1;fill-rule:evenodd"
               d="m 177.66,32.134 c -3.492,-0.324 -7.127,0.252 -11.053,2.268 -4.066,1.98 -9.936,6.444 -12.6,9.216 -2.699,2.628 -3.779,4.644 -3.383,6.336 l 2.699,6.084 c -1.871,1.404 -3.527,2.556 -4.969,3.6 -1.475,0.972 -2.627,1.8 -3.6,2.484 3.061,2.952 5.293,5.292 6.984,7.416 1.584,2.016 2.484,3.6 2.699,4.752 -0.756,1.656 -1.547,3.204 -2.23,4.5 -0.756,1.332 -1.441,2.412 -2.053,3.384 2.16,2.196 4.141,4.5 6.084,6.768 1.873,2.196 3.6,4.428 5.184,6.984 1.549,2.592 2.809,5.364 4.068,8.316 1.188,2.88 2.195,6.012 3.168,8.82 0.828,2.7 1.549,5.004 2.016,7.2 0.072,0.972 1.369,1.044 4.033,0.216 2.627,-0.828 7.164,-3.204 11.52,-5.184 4.248,-2.268 9.684,-4.716 13.969,-7.2 4.211,-2.484 7.99,-5.076 11.051,-7.2 2.881,-2.16 4.932,-3.924 6.301,-5.436 -0.684,-2.664 -0.828,-5.472 -0.432,-8.568 0.287,-3.168 1.367,-6.444 2.699,-10.116 1.367,-3.78 2.988,-8.136 5.4,-11.952 2.34,-3.744 5.148,-7.272 8.568,-10.584 -0.576,-2.484 -1.404,-4.644 -2.484,-6.768 -1.152,-2.124 -2.412,-4.032 -4.068,-5.868 l 2.484,-12.168 c -0.721,0.54 -1.945,1.26 -3.385,2.016 -1.512,0.756 -3.383,1.584 -5.615,2.484 l 3.131,-14.184 -10.799,4.5 c 0.18,-2.952 0.684,-6.012 1.115,-9.468 0.541,-3.492 1.008,-7.128 1.801,-11.052 -6.121,-1.512 -11.125,-2.412 -15.553,-2.7 -4.393,-0.324 -7.271,0.108 -10.584,0.9 -3.42,0.756 -6.084,1.908 -9.252,3.6 -3.168,1.62 -6.229,3.6 -9.469,6.084 1.441,2.916 2.773,5.976 3.854,9.468 1.117,3.456 2.018,7.092 2.701,11.052 z" /><path
               inkscape:connector-curvature="0"
               d="m 41.972,111.01 c 0.756,0.252 4.392,0.9 11.052,1.8 6.66,0.864 16.056,2.124 28.62,3.636 l 2.016,-8.136 -2.232,-9.252 c -0.288,-1.188 -0.072,-2.736 0.648,-4.5 0.756,-1.836 1.872,-4.536 3.636,-6.3 1.656,-1.8 3.708,-3.348 6.3,-4.5 -3.78,-4.504 -8.064,-7.96 -13.284,-10.372 -5.22,-2.52 -10.944,-3.852 -17.604,-4.284 -2.772,3.888 -5.544,8.388 -8.316,13.5 -2.808,5.148 -6.336,12.204 -8.351,17.136 -1.98,4.788 -3.384,8.532 -3.816,11.52 0.431,-0.073 0.863,-0.144 1.331,-0.252 z"
               style="fill:#bf2e2e;fill-opacity:1;fill-rule:evenodd"
               id="path33" /><path
               inkscape:connector-curvature="0"
               id="path205589"
               style="fill:url(#radialGradient205599);fill-opacity:1;fill-rule:evenodd"
               d="m 41.972,111.01 c 0.756,0.252 4.392,0.9 11.052,1.8 6.66,0.864 16.056,2.124 28.62,3.636 l 2.016,-8.136 -2.232,-9.252 c -0.288,-1.188 -0.072,-2.736 0.648,-4.5 0.756,-1.836 1.872,-4.536 3.636,-6.3 1.656,-1.8 3.708,-3.348 6.3,-4.5 -3.78,-4.504 -8.064,-7.96 -13.284,-10.372 -5.22,-2.52 -10.944,-3.852 -17.604,-4.284 -2.772,3.888 -5.544,8.388 -8.316,13.5 -2.808,5.148 -6.336,12.204 -8.351,17.136 -1.98,4.788 -3.384,8.532 -3.816,11.52 0.431,-0.073 0.863,-0.144 1.331,-0.252 z" /><ellipse
               style="opacity:0.18399999;fill:url(#radialGradient205868);fill-opacity:1;fill-rule:evenodd;stroke:none;stroke-width:1.20000005;stroke-linecap:round;stroke-linejoin:round;stroke-miterlimit:4;stroke-dasharray:none;stroke-opacity:1;filter:url(#filter205890)"
               id="path205860"
               cx="28.40744"
               cy="132.4644"
               rx="16.800098"
               ry="25.047421"
               transform="matrix(1.1343869,0,0,1.5044965,-1.2569374,-41.336458)" /><path
               inkscape:connector-curvature="0"
               d="m 20.336,76.99 c -0.684,1.188 -0.756,2.412 -0.216,4.068 0.576,1.512 1.8,3.636 3.384,5.4 1.404,1.764 2.484,3.816 5.184,5.184 2.7,1.26 6.372,2.088 11.016,2.484 -1.8,1.656 -3.348,3.204 -4.5,4.5 -1.224,1.332 -2.124,1.584 -2.7,3.384 -0.612,1.656 -1.08,3.96 -1.116,6.768 l 9.252,2.484 c 2.088,-6.768 4.536,-13.212 7.632,-19.62 3.024,-6.408 6.516,-12.6 10.62,-18.72 -0.864,-2.88 -2.052,-5.004 -3.852,-6.768 -1.8,-1.872 -3.456,-3.492 -6.768,-3.6 -3.456,-0.036 -9.144,0.9 -13.752,3.384 -4.68,2.412 -9.359,6.048 -14.184,11.052 z"
               style="fill:#eeee49;fill-opacity:1;fill-rule:evenodd"
               id="path35" /><path
               inkscape:connector-curvature="0"
               id="path205612"
               style="fill:url(#linearGradient205620);fill-opacity:1;fill-rule:evenodd"
               d="m 20.336,76.99 c -0.684,1.188 -0.756,2.412 -0.216,4.068 0.576,1.512 1.8,3.636 3.384,5.4 1.404,1.764 2.484,3.816 5.184,5.184 2.7,1.26 6.372,2.088 11.016,2.484 -1.8,1.656 -3.348,3.204 -4.5,4.5 -1.224,1.332 -2.124,1.584 -2.7,3.384 -0.612,1.656 -1.08,3.96 -1.116,6.768 l 9.252,2.484 c 2.088,-6.768 4.536,-13.212 7.632,-19.62 3.024,-6.408 6.516,-12.6 10.62,-18.72 -0.864,-2.88 -2.052,-5.004 -3.852,-6.768 -1.8,-1.872 -3.456,-3.492 -6.768,-3.6 -3.456,-0.036 -9.144,0.9 -13.752,3.384 -4.68,2.412 -9.359,6.048 -14.184,11.052 z" /><path
               inkscape:connector-curvature="0"
               d="m 84.813,5.998 c -1.332,1.188 -1.692,4.392 -1.368,7.668 0.216,3.276 0.576,7.848 3.168,11.484 2.556,3.564 8.532,7.74 11.952,9.468 3.24,1.44 6.3,1.368 7.632,-0.216 1.116,-1.692 0.396,-5.22 -0.216,-9.036 -0.5,-3.888 -0.76,-10.548 -3.13,-13.716 C 100.331,8.446 94.102,7.366 91.114,6.466 88.089,5.494 86.038,4.738 84.814,5.998 Z"
               style="fill:#c0c0c0;fill-rule:evenodd"
               id="path37" /><path
               inkscape:connector-curvature="0"
               id="path205660"
               style="fill:url(#linearGradient205668);fill-opacity:1;fill-rule:evenodd"
               d="m 84.813,5.998 c -1.332,1.188 -1.692,4.392 -1.368,7.668 0.216,3.276 0.576,7.848 3.168,11.484 2.556,3.564 8.532,7.74 11.952,9.468 3.24,1.44 6.3,1.368 7.632,-0.216 1.116,-1.692 0.396,-5.22 -0.216,-9.036 -0.5,-3.888 -0.76,-10.548 -3.13,-13.716 C 100.331,8.446 94.102,7.366 91.114,6.466 88.089,5.494 86.038,4.738 84.814,5.998 Z" /><path
               inkscape:connector-curvature="0"
               d="m 212.79,145.14 c -2.27,-2.34 -4.248,-3.78 -6.084,-3.924 -1.908,-0.288 -3.133,-0.036 -5.076,2.556 -2.016,2.628 -4.141,6.912 -6.66,13.141 -2.52,-2.629 -4.176,-3.349 -5.111,-2.16 -0.973,1.151 -2.449,7.92 -0.396,9.216 2.051,1.152 10.656,-1.08 12.348,-1.98 1.549,-0.936 0.504,-2.376 -3.133,-3.924 1.945,-4.14 3.602,-7.128 5.113,-8.819 1.475,-1.729 2.52,-1.872 3.707,-1.549 1.117,0.217 2.053,1.188 2.953,2.916 1.402,-2.699 1.979,-3.672 2.123,-3.312 0.107,0.432 -0.611,2.196 -1.764,5.688 -1.26,-2.231 -2.305,-3.456 -3.527,-3.527 -1.225,-0.072 -2.521,1.26 -3.492,2.735 -1.08,1.296 -1.836,2.952 -2.557,5.112 1.836,1.548 2.881,2.844 3.133,3.888 0.215,0.973 0.467,1.225 -1.766,2.16 -2.41,0.828 -9.719,3.492 -12.348,3.132 -2.771,-0.432 -3.635,-2.664 -3.707,-5.292 -0.037,-2.771 1.656,-8.964 3.131,-10.367 1.369,-1.404 3.061,-0.685 5.076,2.159 2.412,-5.688 4.537,-9.54 6.66,-11.952 2.053,-2.34 4.141,-2.088 5.688,-2.159 1.369,-0.145 2.232,0.468 3.133,1.548 0.901,1.08 1.8,2.517 2.556,4.714 z"
               style="fill-rule:evenodd;stroke:#000000;stroke-width:0.036;stroke-miterlimit:10"
               id="path39" /><path
               inkscape:connector-curvature="0"
               d="m 183.16,178.62 c 0.576,3.168 1.404,5.363 2.916,6.588 1.369,1.296 2.557,1.62 5.652,0.684 3.168,-1.152 7.199,-3.528 12.779,-7.271 0.613,3.527 1.584,5.111 3.061,4.607 1.367,-0.612 6.408,-5.328 5.4,-7.488 -1.117,-2.231 -9.541,-5.111 -11.377,-5.147 -1.799,-0.036 -1.691,1.584 0.469,5.004 -3.924,2.376 -6.912,3.888 -9.107,4.536 -2.197,0.54 -3.24,0.107 -3.961,-0.72 -0.828,-0.792 -1.115,-2.196 -0.863,-4.068 -2.629,1.368 -3.781,1.944 -3.6,1.584 0.143,-0.36 1.619,-1.62 4.57,-3.78 -0.215,2.521 0.072,4.104 1.01,4.896 0.971,0.611 2.734,0.216 4.463,-0.36 1.512,-0.576 3.205,-1.476 4.932,-2.844 -0.719,-2.376 -0.828,-3.996 -0.467,-5.004 0.324,-1.044 0.143,-1.368 2.664,-0.828 2.412,0.576 9.936,2.34 12.023,4.176 1.943,1.836 1.549,4.14 0.217,6.48 -1.441,2.231 -6.445,6.443 -8.354,6.947 -1.943,0.396 -2.916,-1.188 -3.059,-4.607 -5.148,3.384 -9.145,5.436 -12.133,6.3 -2.951,0.684 -4.787,-0.54 -5.939,-1.332 -1.189,-0.792 -1.729,-1.656 -1.764,-3.024 -0.288,-1.405 -0.036,-3.134 0.468,-5.329 z"
               style="fill-rule:evenodd;stroke:#000000;stroke-width:0.036;stroke-miterlimit:10"
               id="path41" /><path
               inkscape:connector-curvature="0"
               d="m 221.9,177.03 c 2.736,-0.72 4.717,-1.691 5.652,-3.06 0.936,-1.44 1.26,-2.484 0.145,-5.076 -1.297,-2.628 -3.637,-6.264 -7.453,-10.764 3.061,-0.864 4.393,-1.836 3.852,-3.061 -0.611,-1.367 -5.219,-5.184 -7.02,-4.212 -1.836,1.044 -3.852,8.748 -3.707,10.477 0.143,1.548 1.512,1.332 4.391,-0.792 2.449,3.24 4.033,5.76 4.752,7.704 0.576,1.872 0.324,2.699 -0.359,3.6 -0.721,0.828 -1.764,1.044 -3.527,1.044 1.404,2.16 2.016,3.24 1.691,3.096 -0.396,-0.144 -1.584,-1.403 -3.707,-3.779 2.268,0.036 3.635,-0.433 4.246,-1.261 0.576,-0.899 -0.107,-2.628 -0.646,-3.924 -0.613,-1.403 -1.584,-2.735 -2.916,-4.14 -2.016,0.792 -3.529,1.008 -4.393,0.792 -0.936,-0.36 -1.297,-0.108 -0.936,-2.304 0.324,-2.269 1.295,-9.072 2.771,-10.98 1.476,-1.908 3.527,-1.8 5.725,-0.647 2.088,0.972 6.156,5.147 6.768,6.84 0.432,1.656 -0.793,2.628 -3.816,3.06 3.385,4.212 5.508,7.632 6.516,10.26 0.973,2.593 -0.287,4.104 -0.719,5.364 -0.541,1.116 -1.441,1.477 -2.557,1.764 -1.225,0.252 -2.809,0.252 -4.753,-0.001 z"
               style="fill-rule:evenodd;stroke:#000000;stroke-width:0.036;stroke-miterlimit:10"
               id="path43" /><path
               inkscape:connector-curvature="0"
               id="path205557"
               style="fill:url(#radialGradient205565);fill-opacity:1;fill-rule:evenodd"
               d="m 128.98,41.17 c 1.404,1.62 2.377,3.348 2.916,5.184 0.432,1.836 1.008,3.132 0.217,5.832 -0.9,2.664 -4.393,6.552 -4.934,10.152 -0.504,3.42 0.324,7.164 1.801,10.836 1.367,3.672 4.717,7.344 6.301,11.016 1.402,3.564 1.908,7.56 2.482,10.62 0.504,3.06 0.9,5.4 0.9,7.416 l 4.5,-1.8 c 1.764,-2.304 3.133,-3.744 4.5,-4.716 1.26,-0.972 1.945,-1.224 3.168,-0.9 1.188,0.144 3.709,1.188 4.068,2.448 0.252,1.332 -1.225,3.348 -2.484,5.22 -1.332,1.728 -4.248,3.276 -5.436,5.184 -1.297,1.764 -1.836,4.212 -2.016,5.832 -0.217,1.548 1.008,2.556 0.9,3.852 -0.145,1.296 -0.793,2.52 -1.801,3.816 2.916,-0.072 6.119,-0.072 9.469,0 3.42,0.035 7.596,0.468 10.584,0.468 2.807,-0.072 5.039,-0.252 6.551,-0.685 -0.324,-2.699 -1.08,-5.616 -2.268,-9.036 -1.152,-3.456 -2.951,-7.488 -4.717,-11.268 -1.979,-3.924 -4.211,-8.568 -6.551,-11.7 -2.377,-3.096 -4.645,-5.472 -7.201,-6.984 1.332,-0.72 2.16,-1.944 2.916,-3.384 0.648,-1.476 1.08,-3.456 1.152,-5.652 -0.863,-2.376 -1.943,-4.356 -3.635,-6.084 -1.693,-1.728 -3.744,-3.204 -6.301,-4.284 3.133,-1.188 5.58,-2.268 7.199,-3.384 1.621,-1.116 2.449,-2.16 2.484,-3.132 l -2.916,-5.652 0.9,-2.916 c -2.053,0.108 -4.213,-0.612 -6.768,-2.016 -2.592,-1.476 -5.328,-3.78 -8.352,-6.768 -2.516,0.829 -5.071,1.657 -7.628,2.485 z" /><path
               inkscape:connector-curvature="0"
               d="m 219.85,77.926 c 4.934,-0.396 9.793,0.072 14.869,1.008 5.004,0.9 9.936,2.664 15.084,4.896 -0.037,4.428 -0.072,8.496 -0.396,12.348 -0.359,3.78 -0.721,7.344 -1.367,10.548 1.547,-0.72 -0.793,0.756 -7.416,4.716 -6.732,3.96 -21.744,13.211 -31.969,18.612 -10.26,5.22 -19.729,9.576 -28.98,12.924 -25.271,-0.216 -52.127,-1.728 -82.08,-4.68 -30.024,-3.024 -61.488,-7.2 -96.192,-12.96 -0.972,-5.256 -1.476,-9.108 -1.368,-11.952 0.072,-2.844 0.612,-4.428 1.764,-4.896 l 27.036,-16.632 1.152,0.576 c -8.46,4.932 -14.724,8.712 -19.368,11.772 -4.68,2.88 -6.66,2.772 -8.028,6.048 -1.368,3.384 -1.368,7.775 0,13.716 11.808,3.096 32.004,5.904 61.704,8.82 29.844,2.844 67.608,5.544 115.38,8.243 12.277,-5.004 23.58,-10.439 34.885,-16.451 11.16,-6.084 21.707,-12.492 31.932,-19.62 0.648,-3.672 0.9,-7.02 1.152,-10.188 0.072,-3.204 0.145,-5.976 -0.18,-8.604 -3.168,3.96 -10.369,9.396 -21.744,16.452 -11.557,7.128 -26.713,15.408 -46.439,25.668 0.719,6.804 0.971,10.26 0.611,10.367 -0.359,0 -1.332,-3.132 -2.771,-9.792 -21.313,0.145 -42.588,-0.504 -65.233,-1.943 C 89.1,125.302 60.804,122.818 42.552,120.046 24.336,117.238 7.596,111.658 4.14,110.65 c -3.276,-1.044 7.272,1.512 18.612,3.348 11.268,1.872 32.652,5.616 48.6,7.632 15.804,1.908 28.692,2.628 46.044,3.708 17.316,0.972 36.252,1.691 57.385,2.16 6.264,-3.133 12.814,-6.408 19.799,-9.973 6.984,-3.708 15.084,-7.452 21.924,-11.375 6.768,-4.068 13.752,-8.244 18.613,-11.952 4.715,-3.6 8.1,-6.804 10.008,-9.612 -3.672,-1.512 -7.561,-2.736 -11.953,-3.528 -4.391,-0.792 -9,-1.296 -14.111,-1.368 0.251,-0.576 0.503,-1.152 0.79,-1.764 z"
               style="fill-rule:evenodd;stroke:#000000;stroke-width:0.036;stroke-miterlimit:10"
               id="path45" /><path
               inkscape:connector-curvature="0"
               d="m 217.29,90.67 3.131,0.792 c -5.291,5.436 -11.771,10.476 -19.584,15.264 -7.92,4.68 -16.775,9.108 -27.252,13.14 -23.436,0.864 -46.727,0.217 -71.279,-1.943 -24.516,-2.232 -49.032,-5.76 -74.664,-10.98 l 3.348,-3.132 -7.056,2.556 c 0.936,1.692 6.768,3.42 17.64,5.472 10.908,1.98 30.852,4.644 47.196,6.479 16.38,1.836 35.352,3.637 49.968,4.284 14.363,0.504 26.279,0.072 36.037,-1.152 10.727,-4.392 19.943,-9 28.223,-14.111 8.244,-5.112 14.977,-10.548 20.771,-16.452 l -6.658,-2.376 c 0.034,0.718 0.107,1.439 0.179,2.159 z"
               style="fill-rule:evenodd;stroke:#000000;stroke-width:0.036;stroke-miterlimit:10"
               id="path47" /><path
               inkscape:connector-curvature="0"
               d="m 29.984,107.52 c -0.288,-1.908 0.18,-3.816 1.404,-5.868 1.188,-2.16 5.508,-5.04 5.868,-6.264 0.18,-1.188 -2.304,-0.288 -4.104,-0.792 -1.836,-0.612 -4.392,-1.548 -6.3,-2.952 -1.98,-1.548 -3.816,-3.924 -5.076,-5.868 -1.188,-1.979 -1.836,-4.536 -2.34,-5.868 -0.72,-1.368 -2.088,-1.44 -1.584,-2.556 0.396,-1.26 1.836,-3.276 4.32,-5.076 2.484,-1.979 6.66,-4.14 10.584,-6.084 3.888,-2.088 9.108,-4.5 12.312,-5.292 2.988,-0.756 4.14,0.396 6.084,1.368 1.944,0.936 4.356,2.484 5.688,4.5 1.152,1.944 1.872,4.248 1.764,7.056 l -0.972,1.764 C 57.416,71.77 56.552,68.782 54.896,66.766 53.24,64.714 50.936,63.49 47.84,63.238 41.18,65.506 35.672,67.99 31.172,70.69 c -4.608,2.664 -7.884,5.544 -10.368,8.64 0.792,3.276 2.16,6.012 4.5,8.208 2.34,2.268 6.588,5.148 9,4.896 2.304,-0.468 4.104,-7.092 4.716,-7.236 0.54,-0.072 -2.16,5.292 -1.584,6.66 0.504,1.224 4.32,0.108 4.5,0.972 -0.144,0.864 -2.772,2.232 -4.284,4.104 -1.512,1.692 -3.42,4.248 -4.32,6.3 -0.936,2.052 -1.332,3.96 -1.188,5.868 -0.72,-0.504 -1.439,-1.044 -2.16,-1.584 z"
               style="fill-rule:evenodd;stroke:#000000;stroke-width:0.036;stroke-miterlimit:10"
               id="path49" /><path
               inkscape:connector-curvature="0"
               d="m 40.388,109.89 c 2.124,-7.056 4.572,-13.212 7.056,-19.008 2.484,-5.832 5.436,-11.304 8.028,-15.3 2.628,-4.104 4.86,-6.912 7.236,-8.82 5.796,-0.108 11.232,1.188 16.452,3.744 5.22,2.592 10.08,6.408 14.724,11.736 -1.62,0.684 -2.844,1.368 -3.528,1.764 -0.756,0.36 -0.972,0.72 -0.792,0.792 -4.32,-4.716 -8.892,-8.064 -13.716,-10.188 -4.896,-2.124 -9.9,-3.132 -15.3,-2.736 -3.672,5.688 -7.02,11.628 -10.188,18.216 -3.204,6.588 -6.084,13.284 -8.784,20.772 l -1.188,-0.972 z"
               style="fill-rule:evenodd;stroke:#000000;stroke-width:0.036;stroke-miterlimit:10"
               id="path51" /><path
               inkscape:connector-curvature="0"
               d="m 82.904,107.52 c -0.468,2.016 -0.864,3.78 -1.188,5.292 -0.396,1.548 -0.612,2.7 -0.792,3.744 l 1.368,0.18 1.188,-6.84 c -0.18,-0.792 -0.359,-1.584 -0.576,-2.376 z"
               style="fill-rule:evenodd;stroke:#000000;stroke-width:0.036;stroke-miterlimit:10"
               id="path53" /><path
               id="path205650"
               style="fill:url(#linearGradient205658);fill-opacity:1;fill-rule:evenodd"
               d="m 91.329,83.074 c -3.996,2.628 -6.732,5.328 -8.352,8.1 -1.656,2.772 -1.98,6.48 -1.548,8.352 0.324,1.8 1.399187,2.32561 3.163187,2.82961 1.692,0.396 3.928813,0.59039 7.204813,-0.12961 3.312,-0.72 9.936,-1.944 13.068,-4.5 2.952,-2.7 4.104,-8.172 4.968,-11.268 0.864,-3.132 0.936,-5.616 0.216,-7.452 -4.788,0.684 -8.604,1.368 -11.736,2.052 -3.097,0.72 -5.473,1.26 -6.984,2.016 z"
               inkscape:connector-curvature="0"
               sodipodi:nodetypes="cccccccccc" /><path
               inkscape:connector-curvature="0"
               d="m 86.829,117.13 c -1.368,-1.908 -2.412,-4.356 -3.528,-7.632 -1.116,-3.24 -2.052,-7.164 -2.952,-11.772 0.144,-2.016 1.008,-4.14 2.736,-6.66 1.728,-2.556 4.536,-6.228 7.452,-8.244 2.88,-2.124 6.336,-3.168 9.792,-4.104 3.456,-0.9 6.84,-1.404 10.584,-1.368 3.348,3.168 6.3,7.02 9.396,11.952 2.988,4.932 5.867,10.44 8.641,17.064 l -1.369,0.756 c -2.052,-4.572 -4.428,-9.144 -7.271,-13.716 -2.916,-4.572 -6.048,-9.144 -9.792,-13.716 -5.148,0.72 -9.648,1.836 -13.5,3.348 -3.924,1.512 -7.128,2.952 -9.612,5.688 -2.592,2.736 -4.32,6.048 -5.472,10.368 0.792,3.996 1.764,7.236 2.916,10.404 1.116,2.952 2.376,5.688 3.924,7.812 -0.649,-0.037 -1.297,-0.109 -1.945,-0.18 z"
               style="fill-rule:evenodd;stroke:#000000;stroke-width:0.036;stroke-miterlimit:10"
               id="path55" /><path
               inkscape:connector-curvature="0"
               d="m 81.32,99.31 c 0.468,1.584 1.836,2.628 4.5,2.736 2.628,0.108 7.632,-0.612 10.98,-1.764 3.276,-1.26 6.084,-1.944 8.424,-5.508 2.16,-3.636 3.78,-8.892 4.716,-16.056 l 1.368,0 c -0.072,6.444 -1.008,11.592 -2.952,15.3 -1.98,3.672 -5.364,5.328 -8.604,7.056 -3.348,1.62 -8.028,2.736 -10.98,2.916 -2.988,0.144 -5.22,-0.504 -6.84,-1.944 -0.18,-0.9 -0.395,-1.8 -0.612,-2.736 z"
               style="fill-rule:evenodd;stroke:#000000;stroke-width:0.036;stroke-miterlimit:10"
               id="path57" /><path
               inkscape:connector-curvature="0"
               d="m 96.225,89.698 c -1.656,1.224 -3.888,4.104 -3.924,5.292 -0.072,1.152 1.836,1.8 3.924,1.368 2.088,-0.684 7.236,-3.276 8.208,-4.716 0.828,-1.584 -1.836,-3.528 -3.132,-3.888 -1.477,-0.396 -3.492,0.756 -5.076,1.944 z"
               style="fill-rule:evenodd;stroke:#000000;stroke-width:0.036;stroke-miterlimit:10"
               id="path59" /><path
               inkscape:connector-curvature="0"
               d="m 80.745,72.634 c 0.396,-4.5 1.548,-8.424 3.312,-12.312 1.764,-3.924 4.14,-7.272 7.272,-10.584 7.848,1.08 14.328,2.844 19.584,5.688 5.184,2.772 9.036,6.372 11.556,10.944 -0.288,3.564 -0.936,6.624 -1.944,9.612 -1.08,2.88 -2.52,5.544 -4.32,7.848 l -0.972,-1.188 c 1.728,-2.088 2.988,-4.392 3.924,-7.056 0.936,-2.628 1.404,-5.616 1.548,-8.82 -6.192,-4.644 -11.484,-7.956 -16.452,-10.368 -4.968,-2.34 -9.18,-3.636 -12.924,-3.744 -3.06,3.816 -5.4,7.452 -6.876,11.196 -1.548,3.672 -2.268,7.164 -2.16,10.764 -0.504,-0.648 -1.008,-1.296 -1.548,-1.98 z"
               style="fill-rule:evenodd;stroke:#000000;stroke-width:0.036;stroke-miterlimit:10"
               id="path61" /><path
               inkscape:connector-curvature="0"
               d="m 109.98,36.238 c 4.644,0.9 7.812,2.412 9.792,4.68 1.908,2.268 2.628,6.876 1.764,8.82 -1.044,1.8 -6.264,3.312 -7.452,2.16 -1.296,-1.26 0.684,-6.876 0.396,-9.216 -0.288,-2.412 -0.9,-3.852 -1.98,-4.716 1.44,0.864 2.412,2.124 2.772,3.924 0.36,1.764 -1.008,5.184 -0.612,6.66 0.36,1.332 1.584,1.728 2.556,1.584 0.936,-0.252 2.448,-1.512 2.736,-2.952 0.036,-1.656 -0.288,-4.14 -1.944,-6.048 -1.729,-1.872 -4.357,-3.456 -8.028,-4.896 z"
               style="fill-rule:evenodd;stroke:#000000;stroke-width:0.036;stroke-miterlimit:10"
               id="path63" /><polygon
               points="120.31,74.434 120.31,74.434 128.55,75.01 129.13,76.378 119.91,76.378 "
               style="fill-rule:evenodd;stroke:#000000;stroke-width:0.036;stroke-miterlimit:10"
               id="polygon65" /><polygon
               points="117.18,81.67 117.18,81.67 132.66,82.462 133.45,84.622 116.2,82.858 "
               style="fill-rule:evenodd;stroke:#000000;stroke-width:0.036;stroke-miterlimit:10"
               id="polygon67" /><path
               inkscape:connector-curvature="0"
               id="path205567"
               style="fill:url(#linearGradient205575);fill-opacity:1;fill-rule:evenodd"
               d="m 125.13,37.786 5.401,3.384 6.768,-5.184 -0.684,-3.168 c -0.9,-1.008 -1.584,-1.728 -2.449,-2.016 -0.828,-0.396 -1.656,-0.396 -2.484,0 -0.936,0.36 -1.871,1.296 -2.951,2.232 -1.115,0.9 -3.06,1.8 -3.6,2.7 -0.612,0.792 -0.612,1.476 -0.001,2.052 z" /><path
               inkscape:connector-curvature="0"
               d="m 137.55,102.44 c -0.432,-6.084 -1.404,-11.376 -3.313,-16.452 -1.943,-5.076 -6.553,-9.54 -7.848,-13.536 -1.368,-3.96 -0.864,-6.768 0,-10.368 0.9,-3.888 4.932,-8.568 5.291,-11.952 0.217,-3.276 -2.016,-5.832 -3.348,-7.668 -1.439,-2.016 -3.744,-2.376 -4.284,-3.708 -0.576,-1.368 -0.108,-2.592 1.548,-4.104 1.655,-1.584 6.265,-4.968 8.423,-4.896 1.945,0.144 3.313,3.528 4.105,5.292 0.828,1.584 -0.396,2.808 0.791,4.5 1.117,1.584 3.529,3.744 5.869,5.076 2.34,1.224 4.715,2.124 7.668,2.556 l -0.973,1.368 c -2.484,-0.144 -4.787,-0.864 -7.057,-2.16 -2.268,-1.368 -4.428,-3.276 -6.479,-5.868 -0.828,-0.612 -1.369,-1.728 -1.766,-2.952 -0.359,-1.368 -0.035,-3.924 -0.574,-4.896 -0.686,-1.116 -1.549,-1.692 -3.133,-1.152 -1.691,0.576 -5.797,3.096 -6.48,4.5 -0.792,1.152 0.9,1.656 2.16,3.312 1.26,1.692 4.5,4.464 5.293,7.056 0.539,2.556 -0.434,5.256 -1.369,8.244 -1.008,2.952 -3.564,6.3 -3.924,9.216 -0.469,2.736 0.145,5.256 1.549,7.416 2.699,3.924 4.68,8.496 6.479,13.716 1.693,5.328 2.881,10.98 3.709,17.64 -1.188,0.684 -2.016,1.008 -2.34,0.972 -0.394,-0.036 -0.394,-0.469 0.003,-1.152 z"
               style="fill-rule:evenodd;stroke:#000000;stroke-width:0.036;stroke-miterlimit:10"
               id="path69" /><path
               inkscape:connector-curvature="0"
               d="m 131.29,43.078 c 0.863,0.144 1.943,-0.108 2.951,-0.612 1.08,-0.612 2.088,-1.476 3.313,-2.736 l -0.793,-6.264 c -0.18,1.908 -1.15,3.096 -2.916,4.104 -1.764,0.864 -4.32,1.368 -7.668,1.368 1.693,1.368 3.385,2.736 5.113,4.14 z"
               style="fill-rule:evenodd;stroke:#000000;stroke-width:0.036;stroke-miterlimit:10"
               id="path71" /><path
               inkscape:connector-curvature="0"
               d="m 177.12,30.333 c -7.598,1.188 -13.682,3.276 -18.396,6.66 -4.68,3.348 -7.992,7.596 -9.793,13.14 4.717,7.56 8.496,14.544 11.736,20.952 3.061,6.372 4.789,9.216 7.271,17.424 2.521,8.208 4.969,18.324 7.633,31.176 l 1.943,-0.216 c -0.107,-7.74 -2.16,-17.208 -6.443,-28.8 -4.355,-11.7 -10.512,-24.876 -19.008,-40.356 2.699,-3.888 5.328,-6.912 8.027,-9.216 2.592,-2.34 4.789,-3.384 7.848,-4.5 3.025,-1.26 6.48,-1.98 10.369,-2.556 -0.396,-1.223 -0.792,-2.447 -1.187,-3.708 z"
               style="fill-rule:evenodd;stroke:#000000;stroke-width:0.036;stroke-miterlimit:10"
               id="path73" /><path
               inkscape:connector-curvature="0"
               d="m 155.98,56.578 c 3.889,-3.924 7.164,-6.876 10.367,-9 3.098,-2.16 5.797,-3.348 8.244,-3.708 1.08,4.896 2.053,9.288 2.916,13.716 0.828,4.428 1.549,8.352 2.16,12.312 -3.455,2.016 -6.264,3.996 -8.424,6.084 -2.232,2.124 -3.6,4.068 -4.5,6.264 l -0.791,-2.556 c 3.814,-4.572 6.479,-7.632 8.424,-9.576 1.871,-1.836 2.736,-2.556 2.736,-1.764 -0.865,-5.796 -1.693,-10.404 -2.34,-14.112 -0.721,-3.708 -1.262,-6.336 -1.766,-8.028 -4.752,2.844 -8.531,5.4 -11.34,7.812 -2.807,2.34 -4.643,4.392 -5.508,6.3 -0.033,-1.224 -0.105,-2.484 -0.178,-3.744 z"
               style="fill-rule:evenodd;stroke:#000000;stroke-width:0.036;stroke-miterlimit:10"
               id="path75" /><path
               inkscape:connector-curvature="0"
               d="m 151.66,55.605 c -0.611,1.152 -1.836,2.376 -3.527,3.528 -1.764,1.224 -3.996,2.16 -6.84,3.348 5.291,2.448 10.439,7.452 15.443,14.868 4.969,7.488 9.756,17.172 14.508,29.592 -2.195,-7.416 -4.607,-13.968 -7.236,-19.8 -2.734,-6.012 -5.615,-10.944 -8.639,-15.084 -3.096,-4.104 -6.193,-7.128 -9.576,-9.216 1.656,-0.792 3.023,-1.584 4.5,-2.52 1.404,-0.936 2.664,-1.872 3.924,-2.952 -0.828,-0.575 -1.692,-1.151 -2.557,-1.764 z"
               style="fill-rule:evenodd;stroke:#000000;stroke-width:0.036;stroke-miterlimit:10"
               id="path77" /><path
               inkscape:connector-curvature="0"
               d="m 154,73.246 c -0.936,2.412 -1.908,4.32 -2.916,5.868 -1.08,1.584 -2.088,2.448 -3.168,3.132 4.717,2.952 8.965,7.56 12.744,14.112 3.781,6.588 6.949,14.688 9.793,24.875 l 1.188,0 c -1.297,-5.22 -3.061,-10.296 -5.293,-15.66 -2.375,-5.472 -5.58,-12.024 -8.207,-16.056 -2.592,-3.96 -4.896,-6.516 -7.057,-7.668 0.828,-1.26 1.764,-2.448 2.521,-3.708 0.756,-1.332 1.475,-2.592 2.158,-3.924 -0.574,-0.323 -1.15,-0.647 -1.763,-0.971 z"
               style="fill-rule:evenodd;stroke:#000000;stroke-width:0.036;stroke-miterlimit:10"
               id="path79" /><path
               inkscape:connector-curvature="0"
               d="m 179.89,118.1 c 1.439,-6.624 2.412,-14.076 2.916,-22.932 0.467,-8.964 0.973,-19.116 0,-29.772 -1.08,-10.764 -3.852,-24.876 -6.084,-33.876 -2.34,-9 -4.789,-15.552 -7.633,-19.8 4.609,-4.5 9.9,-7.704 16.273,-9.612 6.371,-2.016 16.02,-2.34 21.563,-1.944 5.365,0.396 9,1.836 10.764,4.32 -1.979,7.056 -3.348,15.768 -4.104,26.424 -0.828,10.656 -0.576,25.452 -0.611,37.044 -0.107,11.592 -0.037,21.78 0.215,31.536 l -2.158,1.764 c -0.541,-18.936 -0.721,-34.92 -0.396,-48.78 0.215,-13.932 1.188,-25.668 1.943,-33.696 0.793,-7.992 1.512,-12.528 2.557,-13.896 -7.957,-2.7 -15.121,-3.492 -22.32,-2.376 -7.164,1.152 -13.752,4.068 -20.195,9.036 2.123,4.212 4.211,10.62 6.264,19.764 2.016,9.036 4.824,23.4 5.904,34.488 0.898,10.944 0.684,22.428 0.18,31.14 -0.504,8.604 -1.549,15.3 -3.133,20.376 -0.65,0.252 -1.297,0.503 -1.945,0.792 z"
               style="fill-rule:evenodd;stroke:#000000;stroke-width:0.036;stroke-miterlimit:10"
               id="path81" /><path
               inkscape:connector-curvature="0"
               d="m 211.21,42.466 c -0.469,-1.008 -2.557,-1.368 -6.66,-1.368 -4.141,0.072 -9.865,0.504 -17.604,1.584 0.143,-6.552 0.252,-11.808 0.18,-16.056 -0.109,-4.284 -0.252,-7.308 -0.576,-9.216 3.707,-1.296 7.344,-2.016 11.34,-1.764 3.889,0.072 7.992,1.116 12.168,2.736 -5.076,-1.188 -9.289,-1.728 -12.924,-1.764 -3.6,-0.072 -6.48,0.504 -8.641,1.584 0.648,5.22 0.973,9.612 0.973,13.32 0,3.6 -0.324,6.516 -0.973,8.604 3.313,-0.72 6.768,-1.116 10.764,-1.188 3.924,-0.144 8.172,0.252 12.744,0.792 -0.252,0.9 -0.504,1.8 -0.791,2.736 z"
               style="fill-rule:evenodd;stroke:#000000;stroke-width:0.036;stroke-miterlimit:10"
               id="path83" /><path
               inkscape:connector-curvature="0"
               d="m 190.65,47.397 c 4.969,-1.296 8.783,-2.088 11.736,-2.376 2.844,-0.36 4.68,-0.18 5.508,0.396 -0.756,0.9 -2.34,1.692 -5.293,1.98 -2.878,0.325 -6.91,0.325 -11.951,0 z"
               style="fill-rule:evenodd;stroke:#000000;stroke-width:0.036;stroke-miterlimit:10"
               id="path85" /><path
               inkscape:connector-curvature="0"
               d="m 187.3,52.654 c 5.039,-1.224 8.82,-2.052 11.771,-2.34 2.844,-0.36 4.717,-0.18 5.473,0.396 -0.756,0.972 -2.34,1.62 -5.293,1.944 -2.879,0.324 -6.912,0.324 -11.951,0 z"
               style="fill-rule:evenodd;stroke:#000000;stroke-width:0.036;stroke-miterlimit:10"
               id="path87" /><path
               inkscape:connector-curvature="0"
               d="m 190.83,57.586 c 5.041,-1.296 8.82,-2.088 11.771,-2.376 2.846,-0.36 4.717,-0.18 5.473,0.396 -0.756,0.9 -2.34,1.692 -5.291,1.98 -2.881,0.324 -6.912,0.324 -11.953,0 z"
               style="fill-rule:evenodd;stroke:#000000;stroke-width:0.036;stroke-miterlimit:10"
               id="path89" /><path
               inkscape:connector-curvature="0"
               d="m 187.3,74.254 c 2.879,-1.98 5.615,-3.096 8.064,-3.348 2.412,-0.324 4.68,0.288 6.66,1.692 -2.197,-0.324 -4.393,-0.504 -6.877,-0.144 -2.519,0.324 -5.039,0.792 -7.847,1.8 z"
               style="fill-rule:evenodd;stroke:#000000;stroke-width:0.036;stroke-miterlimit:10"
               id="path91" /><path
               inkscape:connector-curvature="0"
               d="m 189.28,78.178 c 2.916,-2.016 5.543,-3.096 8.027,-3.384 2.484,-0.288 4.572,0.288 6.66,1.728 -2.125,-0.324 -4.355,-0.504 -6.84,-0.144 -2.519,0.324 -5.04,0.792 -7.847,1.8 z"
               style="fill-rule:evenodd;stroke:#000000;stroke-width:0.036;stroke-miterlimit:10"
               id="path93" /><path
               inkscape:connector-curvature="0"
               d="m 213.58,22.702 c 1.045,-0.396 2.557,-1.188 4.68,-1.98 2.053,-0.972 4.609,-1.944 7.668,-3.312 -2.051,6.084 -3.887,13.932 -5.508,23.688 -1.584,9.792 -2.951,21.096 -4.104,34.488 -0.324,-8.532 0,-17.028 0.973,-26.064 0.971,-9 2.555,-18.108 4.895,-27.612 -0.287,0.468 -1.26,1.008 -2.916,1.764 -1.727,0.684 -4.031,1.584 -7.055,2.556 0.431,-1.152 0.9,-2.34 1.367,-3.528 z"
               style="fill-rule:evenodd;stroke:#000000;stroke-width:0.036;stroke-miterlimit:10"
               id="path95" /><path
               inkscape:connector-curvature="0"
               d="m 220.64,32.278 c 2.053,-0.54 4.104,-1.188 5.867,-1.944 1.729,-0.828 3.457,-1.692 4.896,-2.736 -0.9,5.508 -2.195,10.944 -3.744,16.452 -1.656,5.508 -3.564,10.836 -5.867,16.272 1.439,-6.336 2.699,-11.844 3.924,-16.668 1.26,-4.896 2.123,-8.964 3.131,-12.348 -0.898,1.044 -1.908,1.8 -3.311,2.556 -1.441,0.72 -3.025,1.152 -4.896,1.584 l 0,-3.168 z"
               style="fill-rule:evenodd;stroke:#000000;stroke-width:0.036;stroke-miterlimit:10"
               id="path97" /><path
               inkscape:connector-curvature="0"
               d="m 227.66,41.71 c 1.98,1.728 3.6,3.636 4.717,5.868 1.115,2.196 1.764,4.68 1.943,7.452 -6.48,6.948 -10.908,13.752 -13.68,20.556 -2.736,6.804 -3.709,13.32 -2.771,19.979 l -1.945,1.188 c -0.971,-3.24 -0.791,-7.092 0.396,-12.132 1.188,-5.148 3.924,-12.6 6.66,-17.64 2.592,-5.04 5.545,-9 9,-12.168 -0.828,-3.384 -1.729,-6.084 -2.557,-7.812 -0.936,-1.764 -1.799,-2.844 -2.736,-2.952 0.325,-0.755 0.649,-1.547 0.973,-2.339 z"
               style="fill-rule:evenodd;stroke:#000000;stroke-width:0.036;stroke-miterlimit:10"
               id="path99" /><path
               inkscape:connector-curvature="0"
               d="m 112.86,118.5 c 3.24,-4.068 5.976,-7.092 8.64,-9.216 2.52,-2.052 4.428,-2.628 6.839,-3.528 2.377,-1.08 5.328,-1.944 7.453,-2.736 2.051,-0.828 3.311,-0.972 4.895,-1.944 1.584,-1.008 2.449,-2.736 4.105,-3.924 1.475,-1.296 3.311,-3.348 4.932,-3.528 1.584,-0.324 3.455,1.044 4.5,2.16 0.973,1.116 1.404,2.988 1.152,4.5 -0.434,1.404 -1.908,2.304 -3.313,4.104 -1.512,1.764 -4.283,3.996 -5.111,6.264 -0.793,2.196 0.574,4.788 0.215,6.66 -0.396,1.764 -1.295,2.916 -2.555,3.744 l -2.557,-0.216 c 1.547,-0.756 2.412,-1.729 2.736,-3.313 0.215,-1.62 -1.404,-3.96 -0.973,-5.904 0.396,-2.016 1.943,-4.104 3.527,-5.868 1.477,-1.98 4.393,-3.492 5.293,-5.076 0.791,-1.656 0.359,-3.06 -0.18,-3.924 -0.686,-0.828 -1.873,-1.476 -3.133,-0.972 -1.225,0.396 -2.232,1.944 -4.141,3.528 -1.979,1.476 -4.066,3.564 -7.631,5.292 -3.744,1.584 -10.404,2.124 -14.292,4.68 -3.924,2.52 -6.768,5.94 -8.82,10.404 -0.5,-0.395 -1.041,-0.791 -1.581,-1.187 z"
               style="fill-rule:evenodd;stroke:#000000;stroke-width:0.036;stroke-miterlimit:10"
               id="path101" /><path
               inkscape:connector-curvature="0"
               d="m 147.56,96.934 c -0.936,2.088 -1.188,3.564 -0.611,4.716 0.467,1.008 1.764,1.692 3.744,1.764 l -4.141,3.924 c -2.268,-0.54 -3.564,-1.332 -4.285,-2.376 -0.719,-1.116 -0.611,-2.484 0.182,-4.104 1.691,-1.296 3.382,-2.592 5.111,-3.924 z"
               style="fill-rule:evenodd;stroke:#000000;stroke-width:0.036;stroke-miterlimit:10"
               id="path103" /><path
               inkscape:connector-curvature="0"
               id="path205547"
               style="fill:url(#radialGradient205555);fill-opacity:1;fill-rule:evenodd"
               d="m 42.656,39.586 c -0.432,3.924 -0.252,7.56 0.684,11.052 0.864,3.384 1.188,6.48 4.716,9.684 3.528,3.24 8.676,6.3 16.02,9.468 7.704,-4.86 14.76,-10.08 21.852,-15.804 6.984,-5.796 13.464,-11.772 19.832,-18.468 -3.996,-0.36 -7.308,-1.404 -10.368,-3.132 -3.06,-1.8 -5.76,-4.932 -7.668,-7.452 -1.908,-2.592 -3.06,-5.148 -3.6,-8.1 -0.576,-3.096 -0.504,-6.264 0.216,-9.936 -7.74,5.328 -14.796,10.44 -21.852,16.02 -7.02,5.544 -13.5,10.872 -19.836,16.668 z" /><path
               inkscape:connector-curvature="0"
               d="M 42.188,39.082 C 49.352,32.602 56.336,26.554 63.536,20.794 70.7,14.962 77.685,9.67 84.884,4.521 c 6.012,-0.072 10.656,0.9 14.22,3.06 3.456,2.16 5.328,5.508 6.876,9.648 1.512,3.96 2.088,10.692 2.016,14.22 -0.216,3.456 -0.396,6.228 -3.024,6.372 -2.808,0 -9.18,-3.24 -12.708,-6.12 -3.564,-3.06 -6.516,-7.74 -7.884,-11.412 -1.404,-3.708 -1.44,-7.092 -0.252,-10.44 -0.504,3.888 0.108,7.488 2.268,11.196 2.088,3.636 7.2,8.388 10.188,10.656 2.88,2.124 5.472,2.88 7.092,2.556 1.548,-0.36 2.232,-1.008 2.052,-4.32 -0.324,-3.348 -1.62,-11.988 -3.312,-15.516 -1.62,-3.564 -3.78,-4.716 -6.624,-5.832 C 92.84,7.329 89.204,7.041 84.884,7.329 72.86,15.79 63.68,22.773 56.913,28.426 c -6.732,5.58 -10.872,9.684 -12.42,12.456 -0.612,4.068 -0.36,7.92 0.756,11.412 1.08,3.528 2.7,6.84 5.832,9.648 3.132,2.736 7.272,4.896 12.708,6.624 9.288,-7.128 16.992,-13.032 23.652,-18.288 6.624,-5.184 11.628,-9.432 15.588,-12.744 l 2.088,0.468 C 100.217,43.51 94.386,48.946 87.186,54.598 79.877,60.25 71.85,65.83 62.273,71.625 56.009,68.169 51.473,64.821 48.269,61.437 45.065,58.053 44.165,54.993 43.193,51.285 42.149,47.47 41.861,43.582 42.185,39.082 Z"
               style="fill-rule:evenodd;stroke:#000000;stroke-width:0.036;stroke-miterlimit:10"
               id="path105" /><path
               inkscape:connector-curvature="0"
               d="m 92.012,13.917 c -1.08,0.792 -1.044,4.32 0.504,5.868 1.332,1.476 6.408,3.78 7.596,3.024 1.008,-1.008 0.936,-6.588 -0.504,-8.136 -1.403,-1.439 -6.48,-1.692 -7.596,-0.756 z"
               style="fill-rule:evenodd;stroke:#000000;stroke-width:0.036;stroke-miterlimit:10"
               id="path107" /><path
               inkscape:connector-curvature="0"
               d="m 7.665,125.3 c 2.232,12.78 3.816,24.84 4.608,36.612 0.828,11.808 0.864,22.716 0.252,33.552 0.864,2.556 4.788,4.824 11.916,7.092 7.056,2.196 15.408,3.96 30.492,6.12 15.12,2.124 42.12,5.148 59.22,6.588 16.92,1.296 31.824,1.872 41.939,1.296 9.828,-0.792 11.088,-2.771 17.533,-5.112 6.443,-2.231 13.139,-4.968 21.348,-8.64 8.207,-3.996 20.592,-9.107 27.432,-14.22 6.66,-5.112 10.943,-10.188 12.709,-15.769 2.268,-10.188 3.742,-20.124 4.57,-30.491 0.828,-10.44 0.865,-20.628 0.252,-31.249 l -2.268,1.26 c 0.865,9.9 0.865,19.836 0,30.24 -0.936,10.403 -2.664,20.808 -5.328,31.788 -1.979,3.852 -6.047,7.956 -12.203,12.456 -6.264,4.392 -15.264,9.684 -24.912,14.22 -9.721,4.536 -20.592,8.676 -33.049,12.708 -14.867,0.647 -31.752,0.18 -51.335,-1.26 -19.692,-1.549 -49.176,-4.788 -65.556,-7.633 -16.308,-2.916 -26.748,-6.084 -31.752,-9.647 1.224,-14.22 1.512,-26.784 1.008,-38.376 -0.648,-11.664 -1.908,-21.636 -4.32,-30.744 -0.835,-0.25 -1.7,-0.5 -2.563,-0.79 z"
               style="fill-rule:evenodd;stroke:#000000;stroke-width:0.036;stroke-miterlimit:10"
               id="path109" /><path
               inkscape:connector-curvature="0"
               d="m 167.54,142.08 c -0.541,11.592 -1.297,22.752 -2.557,34.056 -1.297,11.268 -2.809,22.14 -4.824,33.048 2.34,-4.536 4.465,-12.42 6.084,-23.652 1.584,-11.411 2.953,-25.703 3.816,-43.703 -0.828,0.07 -1.656,0.143 -2.519,0.251 z"
               style="fill-rule:evenodd;stroke:#000000;stroke-width:0.036;stroke-miterlimit:10"
               id="path111" /><path
               inkscape:connector-curvature="0"
               d="m 109.58,136.75 c 1.476,9.18 2.16,18.611 2.052,28.728 -0.144,10.152 -1.08,20.376 -2.808,31.5 3.24,-7.488 6.12,-15.408 8.64,-24.156 2.52,-8.748 4.536,-17.928 6.336,-27.936 -1.764,6.479 -3.528,13.032 -5.58,19.8 -2.052,6.804 -4.248,13.536 -6.588,20.592 1.548,-14.075 2.52,-24.768 2.772,-32.76 0.252,-8.028 -0.216,-12.815 -1.26,-14.76 -1.188,-0.324 -2.376,-0.649 -3.564,-1.008 z"
               style="fill-rule:evenodd;stroke:#000000;stroke-width:0.036;stroke-miterlimit:10"
               id="path113" /><path
               inkscape:connector-curvature="0"
               d="m 71.708,134.98 c 1.476,9.108 2.16,18.576 2.052,28.692 -0.144,10.116 -1.08,20.484 -2.808,31.536 3.24,-7.488 6.12,-15.408 8.64,-24.156 2.484,-8.784 4.608,-17.964 6.372,-27.972 -1.728,6.552 -3.6,13.032 -5.616,19.836 -2.052,6.804 -4.248,13.536 -6.588,20.592 1.62,-14.04 2.556,-24.84 2.808,-32.796 0.252,-7.956 -0.18,-12.816 -1.296,-14.724 -1.188,-0.323 -2.376,-0.647 -3.564,-1.008 z"
               style="fill-rule:evenodd;stroke:#000000;stroke-width:0.036;stroke-miterlimit:10"
               id="path115" /><path
               inkscape:connector-curvature="0"
               d="m 26.132,189.2 c -3.096,2.411 -5.616,5.147 -7.416,8.208 -1.872,2.951 -3.78,5.472 -3.636,10.188 0.108,4.752 1.584,10.62 4.428,18.036 8.856,2.088 17.532,3.563 26.568,4.572 9.036,0.936 17.892,1.403 27.108,1.26 -2.556,-3.096 -4.176,-6.156 -5.004,-9.612 -0.9,-3.456 -0.648,-7.523 -0.072,-10.691 0.54,-3.133 1.404,-5.832 3.276,-8.244 1.764,-2.484 4.14,-4.788 7.272,-6.769 -9.144,-1.8 -17.964,-3.275 -26.748,-4.428 -8.82,-1.117 -17.316,-2.088 -25.776,-2.52 z"
               style="fill:#ecec0c;fill-opacity:1;fill-rule:evenodd"
               id="path117" /><path
               inkscape:connector-curvature="0"
               id="path205622"
               style="fill:url(#linearGradient205630);fill-opacity:1;fill-rule:evenodd"
               d="m 26.132,189.2 c -3.096,2.411 -5.616,5.147 -7.416,8.208 -1.872,2.951 -3.78,5.472 -3.636,10.188 0.108,4.752 1.584,10.62 4.428,18.036 8.856,2.088 17.532,3.563 26.568,4.572 9.036,0.936 17.892,1.403 27.108,1.26 -2.556,-3.096 -4.176,-6.156 -5.004,-9.612 -0.9,-3.456 -0.648,-7.523 -0.072,-10.691 0.54,-3.133 1.404,-5.832 3.276,-8.244 1.764,-2.484 4.14,-4.788 7.272,-6.769 -9.144,-1.8 -17.964,-3.275 -26.748,-4.428 -8.82,-1.117 -17.316,-2.088 -25.776,-2.52 z" /><path
               inkscape:connector-curvature="0"
               d="m 79.592,195.83 c -1.872,-0.108 -4.284,1.871 -6.408,4.392 -2.124,2.484 -5.328,5.868 -6.012,10.296 -0.828,4.32 0.396,11.592 1.584,15.156 1.188,3.492 3.456,5.363 5.544,5.328 1.98,-0.288 3.888,-3.42 6.264,-6.48 2.304,-3.096 7.02,-7.92 7.632,-11.844 0.432,-4.032 -3.06,-9.288 -4.5,-12.024 -1.476,-2.917 -2.376,-4.753 -4.104,-4.824 z"
               style="fill:#c0c0c0;fill-rule:evenodd"
               id="path119" /><path
               inkscape:connector-curvature="0"
               id="path205632"
               style="fill:url(#linearGradient205648);fill-opacity:1;fill-rule:evenodd"
               d="m 79.592,195.83 c -1.872,-0.108 -4.284,1.871 -6.408,4.392 -2.124,2.484 -5.328,5.868 -6.012,10.296 -0.828,4.32 0.396,11.592 1.584,15.156 1.188,3.492 3.456,5.363 5.544,5.328 1.98,-0.288 3.888,-3.42 6.264,-6.48 2.304,-3.096 7.02,-7.92 7.632,-11.844 0.432,-4.032 -3.06,-9.288 -4.5,-12.024 -1.476,-2.917 -2.376,-4.753 -4.104,-4.824 z" /><path
               inkscape:connector-curvature="0"
               d="m 26.132,188.55 c 9.576,0.54 18.864,1.404 28.008,2.448 9.18,1.008 17.856,2.34 26.568,3.852 4.32,4.212 6.732,8.316 7.776,12.313 0.864,3.924 -0.288,7.812 -2.088,11.664 -1.908,3.96 -6.12,8.928 -8.748,11.411 -2.628,2.196 -4.86,4.104 -6.696,2.269 -2.052,-1.944 -4.104,-8.856 -4.5,-13.356 -0.396,-4.571 0.936,-10.188 2.628,-13.644 1.656,-3.528 4.032,-6.012 7.272,-7.452 -3.096,2.269 -5.22,5.364 -6.372,9.432 -1.152,3.925 -1.008,11.16 -0.54,14.761 0.432,3.6 1.764,5.832 3.168,6.84 1.188,0.936 2.376,0.792 4.536,-1.548 2.268,-2.593 7.272,-9.54 8.748,-13.212 1.26,-3.673 0.792,-6.013 -0.432,-8.82 -1.224,-2.952 -3.42,-5.796 -6.732,-8.676 -14.544,-2.628 -25.812,-4.32 -34.632,-5.221 -8.748,-0.899 -14.58,-1.008 -17.64,-0.18 -3.42,2.521 -5.868,5.185 -7.632,8.532 -1.8,3.204 -3.06,6.804 -2.808,10.944 0.18,4.067 1.62,8.676 4.176,13.68 11.592,1.691 21.24,3.06 29.628,4.104 8.28,1.008 14.904,1.801 20.016,2.232 l 1.116,1.8 c -7.272,0.396 -15.408,0 -24.408,-1.188 -9.18,-1.188 -18.72,-3.204 -29.592,-5.904 -1.944,-6.804 -2.736,-12.456 -2.52,-17.101 0.252,-4.607 1.584,-7.487 3.708,-10.728 1.944,-3.312 4.609,-6.445 7.992,-9.252 z"
               style="fill-rule:evenodd;stroke:#000000;stroke-width:0.036;stroke-miterlimit:10"
               id="path121" /><path
               inkscape:connector-curvature="0"
               d="m 78.98,206.52 c -1.512,-0.324 -3.708,2.412 -3.816,4.464 -0.108,2.088 1.584,7.2 3.132,7.561 1.44,0.144 5.256,-3.996 5.472,-6.048 0.072,-2.054 -3.42,-5.798 -4.788,-5.977 z"
               style="fill-rule:evenodd;stroke:#000000;stroke-width:0.036;stroke-miterlimit:10"
               id="path123" /><path
               inkscape:connector-curvature="0"
               id="path205708"
               d="m 105.75177,35.703562 -0.75206,2.371894 c 0,0 -1.44628,0.462809 -1.44628,0.173553 0,-0.289255 0.52066,-2.950405 0.52066,-2.950405 z"
               style="fill:#000000;fill-opacity:1;fill-rule:evenodd;stroke:none;stroke-width:1px;stroke-linecap:butt;stroke-linejoin:miter;stroke-opacity:1" /><ellipse
               transform="matrix(0.91064111,0,0,0.57326911,209.19655,18.856308)"
               ry="25.047421"
               rx="16.800098"
               cy="132.4644"
               cx="28.40744"
               id="ellipse205967"
               style="opacity:0.194;fill:url(#radialGradient205969);fill-opacity:1;fill-rule:evenodd;stroke:none;stroke-width:1.20000005;stroke-linecap:round;stroke-linejoin:round;stroke-miterlimit:4;stroke-dasharray:none;stroke-opacity:1;filter:url(#filter205890)" /></g></g></g></g></g><metadata
     id="metadata205001"><rdf:RDF><cc:Work><dc:format>image/svg+xml</dc:format><dc:type
           rdf:resource="http://purl.org/dc/dcmitype/StillImage" /><cc:license
           rdf:resource="http://creativecommons.org/publicdomain/zero/1.0/" /><dc:publisher><cc:Agent
             rdf:about="http://openclipart.org/"><dc:title>Openclipart</dc:title></cc:Agent></dc:publisher><dc:title></dc:title><dc:date /><dc:description>remix by j4p4n</dc:description><dc:source /><dc:creator><cc:Agent><dc:title>Gerald_G</dc:title></cc:Agent></dc:creator><dc:subject><rdf:Bag><rdf:li>bin</rdf:li><rdf:li>bottle</rdf:li><rdf:li>box</rdf:li><rdf:li>can</rdf:li><rdf:li>earth</rdf:li><rdf:li>earthday</rdf:li><rdf:li>recycle</rdf:li></rdf:Bag></dc:subject></cc:Work><cc:License
         rdf:about="http://creativecommons.org/publicdomain/zero/1.0/"><cc:permits
           rdf:resource="http://creativecommons.org/ns#Reproduction" /><cc:permits
           rdf:resource="http://creativecommons.org/ns#Distribution" /><cc:permits
           rdf:resource="http://creativecommons.org/ns#DerivativeWorks" /></cc:License></rdf:RDF></metadata></svg>